<svg width="134" height="24" viewBox="0 0 134 24" fill="none" xmlns="http://www.w3.org/2000/svg">
<path d="M8.36 19.2C7.29333 19.2 6.3 19.0267 5.38 18.68C4.47333 18.32 3.68 17.82 3 17.18C2.33333 16.5267 1.81333 15.76 1.44 14.88C1.06667 14 0.88 13.04 0.88 12C0.88 10.96 1.06667 10 1.44 9.12C1.81333 8.24 2.34 7.48 3.02 6.84C3.7 6.18667 4.49333 5.68667 5.4 5.34C6.30667 4.98 7.3 4.8 8.38 4.8C9.52667 4.8 10.5733 5 11.52 5.4C12.4667 5.78667 13.2667 6.36667 13.92 7.14L12.24 8.72C11.7333 8.17333 11.1667 7.76667 10.54 7.5C9.91333 7.22 9.23333 7.08 8.5 7.08C7.76667 7.08 7.09333 7.2 6.48 7.44C5.88 7.68 5.35333 8.02 4.9 8.46C4.46 8.9 4.11333 9.42 3.86 10.02C3.62 10.62 3.5 11.28 3.5 12C3.5 12.72 3.62 13.38 3.86 13.98C4.11333 14.58 4.46 15.1 4.9 15.54C5.35333 15.98 5.88 16.32 6.48 16.56C7.09333 16.8 7.76667 16.92 8.5 16.92C9.23333 16.92 9.91333 16.7867 10.54 16.52C11.1667 16.24 11.7333 15.82 12.24 15.26L13.92 16.86C13.2667 17.62 12.4667 18.2 11.52 18.6C10.5733 19 9.52 19.2 8.36 19.2ZM33.5459 19.14C32.5193 19.14 31.5926 18.9133 30.7659 18.46C29.9526 17.9933 29.3126 17.3533 28.8459 16.54C28.3793 15.7267 28.1459 14.7667 28.1459 13.66C28.1459 12.5533 28.3793 11.5933 28.8459 10.78C29.3126 9.96667 29.9526 9.33333 30.7659 8.88C31.5926 8.42667 32.5193 8.2 33.5459 8.2C34.4393 8.2 35.2393 8.4 35.9459 8.8C36.6526 9.18667 37.2126 9.78 37.6259 10.58C38.0393 11.38 38.2459 12.4067 38.2459 13.66C38.2459 14.9 38.0459 15.9267 37.6459 16.74C37.2459 17.54 36.6926 18.14 35.9859 18.54C35.2793 18.94 34.4659 19.14 33.5459 19.14ZM33.8459 17C34.4459 17 34.9793 16.8667 35.4459 16.6C35.9259 16.3333 36.3059 15.9467 36.5859 15.44C36.8793 14.9333 37.0259 14.34 37.0259 13.66C37.0259 12.9667 36.8793 12.3733 36.5859 11.88C36.3059 11.3733 35.9259 10.9867 35.4459 10.72C34.9793 10.4533 34.4459 10.32 33.8459 10.32C33.2459 10.32 32.7059 10.4533 32.2259 10.72C31.7593 10.9867 31.3793 11.3733 31.0859 11.88C30.8059 12.3733 30.6659 12.9667 30.6659 13.66C30.6659 14.34 30.8059 14.9333 31.0859 15.44C31.3793 15.9467 31.7593 16.3333 32.2259 16.6C32.7059 16.8667 33.2459 17 33.8459 17ZM37.0859 19V16.48L37.1859 13.64L36.9859 10.8V4.16H39.4659V19H37.0859ZM48.3764 19.14C47.1897 19.14 46.1497 18.9067 45.2564 18.44C44.3764 17.96 43.6897 17.3067 43.1964 16.48C42.7164 15.6533 42.4764 14.7133 42.4764 13.66C42.4764 12.5933 42.7097 11.6533 43.1764 10.84C43.6564 10.0133 44.3097 9.36667 45.1364 8.9C45.9764 8.43333 46.9297 8.2 47.9964 8.2C49.0364 8.2 49.9631 8.42667 50.7764 8.88C51.5897 9.33333 52.2297 9.97333 52.6964 10.8C53.1631 11.6267 53.3964 12.6 53.3964 13.72C53.3964 13.8267 53.3897 13.9467 53.3764 14.08C53.3764 14.2133 53.3697 14.34 53.3564 14.46H44.4564V12.8H52.0364L51.0564 13.32C51.0697 12.7067 50.9431 12.1667 50.6764 11.7C50.4097 11.2333 50.0431 10.8667 49.5764 10.6C49.1231 10.3333 48.5964 10.2 47.9964 10.2C47.3831 10.2 46.8431 10.3333 46.3764 10.6C45.9231 10.8667 45.5631 11.24 45.2964 11.72C45.0431 12.1867 44.9164 12.74 44.9164 13.38V13.78C44.9164 14.42 45.0631 14.9867 45.3564 15.48C45.6497 15.9733 46.0631 16.3533 46.5964 16.62C47.1297 16.8867 47.7431 17.02 48.4364 17.02C49.0364 17.02 49.5764 16.9267 50.0564 16.74C50.5364 16.5533 50.9631 16.26 51.3364 15.86L52.6764 17.4C52.1964 17.96 51.5897 18.3933 50.8564 18.7C50.1364 18.9933 49.3097 19.14 48.3764 19.14ZM55.7978 19V8.32H58.1778V11.26L57.8978 10.4C58.2178 9.68 58.7178 9.13333 59.3978 8.76C60.0911 8.38667 60.9511 8.2 61.9778 8.2V10.58C61.8711 10.5533 61.7711 10.54 61.6778 10.54C61.5845 10.5267 61.4911 10.52 61.3978 10.52C60.4511 10.52 59.6978 10.8 59.1378 11.36C58.5778 11.9067 58.2978 12.7267 58.2978 13.82V19H55.7978ZM67.4963 19.14C66.6029 19.14 65.7429 19.0267 64.9163 18.8C64.1029 18.56 63.4563 18.2733 62.9763 17.94L63.9363 16.04C64.4163 16.3467 64.9896 16.6 65.6563 16.8C66.3229 17 66.9896 17.1 67.6563 17.1C68.4429 17.1 69.0096 16.9933 69.3563 16.78C69.7163 16.5667 69.8963 16.28 69.8963 15.92C69.8963 15.6267 69.7763 15.4067 69.5363 15.26C69.2963 15.1 68.9829 14.98 68.5963 14.9C68.2096 14.82 67.7763 14.7467 67.2963 14.68C66.8296 14.6133 66.3563 14.5267 65.8763 14.42C65.4096 14.3 64.9829 14.1333 64.5963 13.92C64.2096 13.6933 63.8963 13.3933 63.6563 13.02C63.4163 12.6467 63.2963 12.1533 63.2963 11.54C63.2963 10.86 63.4896 10.2733 63.8763 9.78C64.2629 9.27333 64.8029 8.88667 65.4963 8.62C66.2029 8.34 67.0363 8.2 67.9963 8.2C68.7163 8.2 69.4429 8.28 70.1763 8.44C70.9096 8.6 71.5163 8.82667 71.9963 9.12L71.0363 11.02C70.5296 10.7133 70.0163 10.5067 69.4963 10.4C68.9896 10.28 68.4829 10.22 67.9763 10.22C67.2163 10.22 66.6496 10.3333 66.2763 10.56C65.9163 10.7867 65.7363 11.0733 65.7363 11.42C65.7363 11.74 65.8563 11.98 66.0963 12.14C66.3363 12.3 66.6496 12.4267 67.0363 12.52C67.4229 12.6133 67.8496 12.6933 68.3163 12.76C68.7963 12.8133 69.2696 12.9 69.7363 13.02C70.2029 13.14 70.6296 13.3067 71.0163 13.52C71.4163 13.72 71.7363 14.0067 71.9763 14.38C72.2163 14.7533 72.3363 15.24 72.3363 15.84C72.3363 16.5067 72.1363 17.0867 71.7363 17.58C71.3496 18.0733 70.7963 18.46 70.0763 18.74C69.3563 19.0067 68.4963 19.14 67.4963 19.14ZM79.4092 19.14C78.3826 19.14 77.4559 18.9133 76.6292 18.46C75.8159 18.0067 75.1759 17.3733 74.7092 16.56C74.2426 15.7333 74.0092 14.7667 74.0092 13.66C74.0092 12.5533 74.2426 11.5933 74.7092 10.78C75.1759 9.96667 75.8159 9.33333 76.6292 8.88C77.4559 8.42667 78.3826 8.2 79.4092 8.2C80.3292 8.2 81.1359 8.4 81.8292 8.8C82.5359 9.18667 83.0892 9.78 83.4892 10.58C83.9026 11.38 84.1092 12.4067 84.1092 13.66C84.1092 14.9 83.8959 15.9267 83.4692 16.74C83.0559 17.54 82.4959 18.14 81.7892 18.54C81.0826 18.94 80.2892 19.14 79.4092 19.14ZM79.6892 17C80.2892 17 80.8292 16.8667 81.3092 16.6C81.7892 16.3333 82.1692 15.9467 82.4492 15.44C82.7292 14.9333 82.8692 14.34 82.8692 13.66C82.8692 12.9667 82.7292 12.3733 82.4492 11.88C82.1692 11.3733 81.7892 10.9867 81.3092 10.72C80.8292 10.4533 80.2892 10.32 79.6892 10.32C79.0892 10.32 78.5492 10.4533 78.0692 10.72C77.6026 10.9867 77.2292 11.3733 76.9492 11.88C76.6692 12.3733 76.5292 12.9667 76.5292 13.66C76.5292 14.34 76.6692 14.9333 76.9492 15.44C77.2292 15.9467 77.6026 16.3333 78.0692 16.6C78.5492 16.8667 79.0892 17 79.6892 17ZM82.8292 22.88V16.52L83.0292 13.68L82.9492 10.84V8.32H85.3292V22.88H82.8292ZM93.5202 19.14C92.6135 19.14 91.8135 18.9733 91.1202 18.64C90.4268 18.2933 89.8868 17.7733 89.5002 17.08C89.1135 16.3733 88.9202 15.4867 88.9202 14.42V8.32H91.4202V14.08C91.4202 15.04 91.6335 15.76 92.0602 16.24C92.5002 16.7067 93.1202 16.94 93.9202 16.94C94.5068 16.94 95.0135 16.82 95.4402 16.58C95.8802 16.34 96.2202 15.98 96.4602 15.5C96.7135 15.02 96.8402 14.4267 96.8402 13.72V8.32H99.3402V19H96.9602V16.12L97.3802 17C97.0202 17.6933 96.4935 18.2267 95.8002 18.6C95.1068 18.96 94.3468 19.14 93.5202 19.14ZM109.593 19V16.84L109.453 16.38V12.6C109.453 11.8667 109.233 11.3 108.793 10.9C108.353 10.4867 107.687 10.28 106.793 10.28C106.193 10.28 105.6 10.3733 105.013 10.56C104.44 10.7467 103.953 11.0067 103.553 11.34L102.573 9.52C103.147 9.08 103.827 8.75333 104.613 8.54C105.413 8.31333 106.24 8.2 107.093 8.2C108.64 8.2 109.833 8.57333 110.673 9.32C111.527 10.0533 111.953 11.1933 111.953 12.74V19H109.593ZM106.233 19.14C105.433 19.14 104.733 19.0067 104.133 18.74C103.533 18.46 103.067 18.08 102.733 17.6C102.413 17.1067 102.253 16.5533 102.253 15.94C102.253 15.34 102.393 14.8 102.673 14.32C102.967 13.84 103.44 13.46 104.093 13.18C104.747 12.9 105.613 12.76 106.693 12.76H109.793V14.42H106.873C106.02 14.42 105.447 14.56 105.153 14.84C104.86 15.1067 104.713 15.44 104.713 15.84C104.713 16.2933 104.893 16.6533 105.253 16.92C105.613 17.1867 106.113 17.32 106.753 17.32C107.367 17.32 107.913 17.18 108.393 16.9C108.887 16.62 109.24 16.2067 109.453 15.66L109.873 17.16C109.633 17.7867 109.2 18.2733 108.573 18.62C107.96 18.9667 107.18 19.14 106.233 19.14ZM115.162 19V8.32H117.542V11.26L117.262 10.4C117.582 9.68 118.082 9.13333 118.762 8.76C119.455 8.38667 120.315 8.2 121.342 8.2V10.58C121.235 10.5533 121.135 10.54 121.042 10.54C120.949 10.5267 120.855 10.52 120.762 10.52C119.815 10.52 119.062 10.8 118.502 11.36C117.942 11.9067 117.662 12.7267 117.662 13.82V19H115.162ZM128.385 19.14C127.198 19.14 126.158 18.9067 125.265 18.44C124.385 17.96 123.698 17.3067 123.205 16.48C122.725 15.6533 122.485 14.7133 122.485 13.66C122.485 12.5933 122.718 11.6533 123.185 10.84C123.665 10.0133 124.318 9.36667 125.145 8.9C125.985 8.43333 126.938 8.2 128.005 8.2C129.045 8.2 129.972 8.42667 130.785 8.88C131.598 9.33333 132.238 9.97333 132.705 10.8C133.172 11.6267 133.405 12.6 133.405 13.72C133.405 13.8267 133.398 13.9467 133.385 14.08C133.385 14.2133 133.378 14.34 133.365 14.46H124.465V12.8H132.045L131.065 13.32C131.078 12.7067 130.952 12.1667 130.685 11.7C130.418 11.2333 130.052 10.8667 129.585 10.6C129.132 10.3333 128.605 10.2 128.005 10.2C127.392 10.2 126.852 10.3333 126.385 10.6C125.932 10.8667 125.572 11.24 125.305 11.72C125.052 12.1867 124.925 12.74 124.925 13.38V13.78C124.925 14.42 125.072 14.9867 125.365 15.48C125.658 15.9733 126.072 16.3533 126.605 16.62C127.138 16.8867 127.752 17.02 128.445 17.02C129.045 17.02 129.585 16.9267 130.065 16.74C130.545 16.5533 130.972 16.26 131.345 15.86L132.685 17.4C132.205 17.96 131.598 18.3933 130.865 18.7C130.145 18.9933 129.318 19.14 128.385 19.14Z" fill="#9D4124"/>
<rect x="17" y="9" width="8.5" height="9" rx="1" stroke="#9D4124" stroke-width="2"/>
</svg>
